<?xml version="1.0" standalone="no"?>
<!DOCTYPE svg PUBLIC "-//W3C//DTD SVG 20010904//EN"
 "http://www.w3.org/TR/2001/REC-SVG-20010904/DTD/svg10.dtd">
<svg version="1.0" xmlns="http://www.w3.org/2000/svg"
 width="981.000000pt" height="935.000000pt" viewBox="0 0 981.000000 935.000000"
 preserveAspectRatio="xMidYMid meet">

<g transform="translate(0.000000,935.000000) scale(0.100000,-0.100000)"
fill="#000000" stroke="none">
<path d="M4615 7939 c-343 -29 -738 -124 -1042 -250 -399 -165 -870 -488
-1120 -765 -237 -265 -422 -543 -571 -859 -98 -207 -131 -290 -171 -427 -115
-396 -167 -811 -142 -1150 31 -441 114 -797 260 -1127 33 -73 57 -139 55 -145
-3 -6 -74 -49 -159 -96 -85 -47 -155 -90 -155 -96 0 -7 33 -76 74 -155 50 -97
80 -145 93 -147 10 -1 85 34 167 78 82 44 150 80 151 80 1 0 26 -33 55 -72
133 -182 256 -326 419 -489 287 -285 501 -441 901 -652 332 -175 658 -276
1080 -333 174 -23 616 -24 787 0 537 73 955 221 1378 486 210 132 332 226 495
384 181 174 464 502 548 633 15 23 33 42 40 43 7 0 55 -25 108 -55 134 -78
194 -107 208 -102 21 8 169 298 158 309 -5 5 -75 47 -153 92 -88 50 -143 88
-142 97 0 8 20 59 43 114 164 393 246 787 257 1232 6 262 -5 438 -43 663 -81
481 -223 845 -485 1242 -139 209 -219 308 -374 464 -290 290 -534 472 -860
640 -395 203 -811 323 -1270 364 -129 12 -447 11 -590 -1z m625 -379 c409 -47
910 -216 1220 -410 699 -437 1145 -1038 1325 -1784 66 -277 90 -512 82 -801
-8 -250 -26 -389 -83 -617 -40 -159 -161 -498 -187 -525 -13 -14 -14 -13 -343
204 -316 208 -541 373 -839 612 -364 292 -852 767 -1259 1224 l-68 77 1 297
c1 163 4 300 7 305 3 4 117 8 254 8 190 0 249 3 251 13 2 6 4 82 4 167 l0 155
-249 3 c-137 1 -254 7 -261 12 -8 6 -11 68 -10 197 1 105 -3 194 -8 201 -7 9
-52 12 -162 12 -110 0 -155 -3 -162 -12 -5 -7 -11 -98 -12 -203 -1 -104 -6
-193 -10 -197 -3 -4 -117 -9 -251 -10 l-245 -3 0 -165 0 -165 245 -3 c136 -1
249 -7 254 -12 5 -5 8 -130 7 -307 l-3 -297 -25 -30 c-33 -40 -224 -244 -435
-466 -166 -174 -356 -358 -538 -522 -167 -150 -709 -571 -952 -741 -148 -104
-548 -357 -562 -357 -16 0 -112 226 -155 365 -165 534 -170 1108 -17 1666 81
296 208 572 390 847 243 370 626 715 1021 921 356 187 809 318 1205 350 135
11 435 6 570 -9z m-498 -2582 c2 -7 5 -161 7 -343 l2 -330 -145 -224 c-259
-396 -480 -713 -625 -896 -100 -126 -354 -417 -456 -524 -144 -150 -374 -361
-394 -361 -26 0 -174 123 -312 260 -200 199 -430 490 -407 517 6 7 38 30 72
50 120 72 454 298 627 425 518 380 983 786 1424 1241 105 108 193 196 196 197
4 0 9 -6 11 -12z m1014 -639 c508 -469 1076 -905 1593 -1221 34 -20 61 -42 61
-47 0 -15 -174 -245 -265 -351 -120 -138 -380 -389 -437 -421 -29 -16 -307
254 -574 556 -276 312 -562 702 -902 1227 l-144 221 1 335 c1 185 4 339 7 344
3 5 115 -103 248 -239 134 -136 319 -318 412 -404z m-789 -550 c87 -140 417
-635 513 -769 230 -322 478 -638 694 -883 47 -54 86 -102 86 -106 0 -5 -64
-38 -142 -76 -244 -115 -524 -198 -823 -242 -186 -27 -631 -25 -820 5 -201 31
-376 78 -570 150 -99 37 -331 147 -339 161 -4 5 20 38 52 73 32 35 76 83 98
108 21 25 42 47 45 50 3 3 61 73 130 155 191 229 338 423 554 730 74 105 270
401 371 562 49 78 95 143 101 143 7 0 30 -27 50 -61z"/>
</g>
</svg>
