<?xml version="1.0" standalone="no"?>
<!DOCTYPE svg PUBLIC "-//W3C//DTD SVG 20010904//EN"
 "http://www.w3.org/TR/2001/REC-SVG-20010904/DTD/svg10.dtd">
<svg version="1.0" xmlns="http://www.w3.org/2000/svg"
 width="1985.000000pt" height="1857.000000pt" viewBox="0 0 1985.000000 1857.000000"
 preserveAspectRatio="xMidYMid meet">

<g transform="translate(0.000000,1857.000000) scale(0.100000,-0.100000)"
fill="#000000" stroke="none">
<path d="M16080 17802 c-24 -2 -50 -8 -57 -14 -18 -15 -19 -2504 -1 -2543 l11
-25 1348 0 c1219 0 1347 2 1353 16 9 23 7 2537 -2 2551 -6 10 -291 13 -1307
15 -715 2 -1320 2 -1345 0z m2291 -351 l24 -19 0 -916 c0 -1021 6 -939 -71
-956 -47 -11 -1806 -12 -1883 -1 -34 5 -59 15 -67 26 -12 16 -14 179 -14 929
l0 910 22 23 21 23 973 0 c942 0 973 -1 995 -19z"/>
<path d="M16817 17043 c-10 -9 -8 -1035 1 -1051 7 -10 126 -12 563 -10 l554 3
0 530 0 530 -556 3 c-305 1 -559 -1 -562 -5z"/>
<path d="M941 17786 c-8 -10 -10 -352 -9 -1287 l3 -1274 1344 -3 c987 -1 1347
1 1357 9 12 10 14 221 12 1288 l-3 1276 -1346 3 c-1126 2 -1348 0 -1358 -12z
m2344 -341 l25 -24 0 -911 0 -911 -25 -24 -24 -25 -969 0 c-965 0 -969 0 -996
21 l-26 20 0 920 c0 906 0 919 20 939 20 20 33 20 995 20 l976 0 24 -25z"/>
<path d="M1733 17038 c-9 -15 -18 -997 -9 -1033 l6 -25 560 0 560 0 -2 533 -3
532 -552 3 c-435 2 -553 0 -560 -10z"/>
<path d="M5302 17788 c-8 -8 -12 -57 -12 -153 0 -96 4 -145 12 -153 8 -8 61
-12 174 -12 220 0 207 12 214 -202 l5 -163 159 -3 c88 -1 163 1 168 6 5 5 11
81 14 168 6 208 -10 194 223 194 233 0 221 11 221 -197 0 -115 3 -153 14 -162
9 -8 114 -11 367 -9 l354 3 0 155 0 155 -171 5 c-227 7 -214 -5 -214 192 0 84
-5 158 -10 169 -10 19 -29 19 -758 19 -569 0 -751 -3 -760 -12z"/>
<path d="M7682 17788 c-9 -9 -12 -98 -12 -338 0 -240 3 -329 12 -338 16 -16
324 -17 334 -1 3 6 6 160 5 342 -2 245 -5 333 -14 339 -21 13 -311 10 -325 -4z"/>
<path d="M8492 17792 c-9 -7 -12 -46 -10 -163 l3 -154 170 -3 c218 -3 205 10
205 -196 0 -105 4 -156 12 -164 8 -8 59 -12 165 -12 l153 0 32 -29 33 -29 0
-134 c0 -73 -3 -147 -7 -164 l-7 -31 47 8 c26 4 97 5 158 2 61 -3 123 -3 138
1 l26 6 0 156 0 156 29 29 29 29 164 0 c157 0 164 -1 193 -24 l30 -24 5 -153
c5 -151 5 -154 30 -166 19 -10 147 -13 547 -13 461 0 523 2 537 16 24 23 24
299 0 308 -9 3 -256 6 -550 6 -572 0 -577 0 -604 49 -5 11 -10 86 -10 168 l0
149 28 27 28 27 956 0 956 0 31 -26 31 -26 0 -149 c0 -137 1 -149 20 -159 12
-7 139 -9 367 -8 l348 3 5 163 c5 157 6 165 29 183 22 18 44 19 392 19 l369 0
-2 163 -3 162 -550 3 c-508 2 -551 1 -562 -15 -9 -12 -13 -63 -13 -169 l0
-153 -26 -20 c-25 -19 -40 -21 -191 -21 l-165 0 -34 34 -34 34 0 150 c0 127
-2 151 -16 156 -9 3 -437 6 -953 6 -715 0 -940 -3 -949 -12 -8 -8 -12 -57 -12
-155 l0 -143 -29 -32 -29 -33 -143 -4 c-241 -5 -249 2 -249 217 0 94 -4 142
-12 150 -14 14 -1084 17 -1106 4z m1137 -351 l31 -29 0 -146 0 -146 -29 -32
-29 -33 -165 -3 -164 -3 -31 26 -32 27 0 161 c0 219 -12 207 216 207 l172 0
31 -29z"/>
<path d="M14027 17794 c-4 -4 -7 -245 -7 -536 0 -326 -4 -536 -10 -548 -16
-31 -67 -40 -219 -40 -148 0 -177 6 -203 44 -4 6 -8 74 -8 151 0 205 19 186
-179 183 l-166 -3 -5 -351 c-5 -328 -6 -353 -24 -373 -18 -20 -29 -21 -192
-21 l-172 0 -31 35 -31 36 0 148 c0 127 -2 150 -16 155 -27 10 -284 7 -305 -4
-17 -10 -19 -23 -19 -161 l0 -151 -29 -29 -29 -29 -164 0 -164 0 -32 33 -32
33 0 147 c0 134 -2 147 -19 157 -11 5 -82 10 -160 10 -114 0 -142 -3 -155 -16
-13 -12 -16 -41 -16 -153 0 -93 4 -141 12 -149 8 -8 60 -12 168 -12 l156 0 32
-33 32 -33 0 -146 c0 -81 -3 -154 -6 -163 -16 -42 -46 -45 -413 -45 -304 0
-352 -2 -365 -16 -14 -13 -16 -58 -16 -339 0 -323 0 -324 22 -339 18 -13 53
-16 169 -16 l147 0 31 -31 31 -31 0 -148 c0 -82 -3 -156 -6 -165 -16 -42 -46
-45 -413 -45 l-351 0 -32 29 -33 29 -3 703 c-2 634 -4 705 -19 721 -15 17 -55
18 -764 18 l-747 0 -32 26 -31 27 3 167 c2 132 0 166 -10 163 -7 -3 -85 -8
-175 -12 l-162 -6 -3 -346 c-2 -337 -3 -347 -23 -365 -19 -17 -41 -19 -189
-22 -166 -3 -168 -3 -196 21 l-29 25 -5 159 -5 158 -566 5 c-539 5 -568 6
-588 24 -32 29 -41 78 -41 219 l0 127 -170 0 -170 0 0 -148 c0 -102 4 -152 12
-160 8 -8 60 -12 167 -12 154 0 155 0 183 -27 l28 -27 0 -889 c0 -593 3 -895
10 -908 10 -18 25 -19 371 -19 l361 0 29 -29 29 -29 0 -346 c0 -333 -1 -347
-20 -366 -19 -19 -33 -20 -200 -20 -179 0 -181 0 -205 25 -24 23 -25 28 -25
173 0 102 -4 152 -12 160 -15 15 -314 17 -323 3 -3 -6 -7 -72 -9 -148 -3 -76
-7 -147 -11 -158 -6 -20 -2 -20 170 -17 l176 3 30 -32 29 -31 0 -143 c0 -105
3 -145 13 -153 9 -8 132 -12 371 -14 l358 -3 30 -34 30 -33 -4 -157 -3 -156
170 5 170 5 3 154 c2 117 -1 156 -10 163 -7 4 -83 8 -168 8 -215 1 -204 -10
-208 202 -3 154 -2 165 18 191 l21 27 172 2 172 3 0 155 0 155 -30 6 c-16 4
-91 7 -166 8 -191 1 -183 -8 -189 203 l-5 163 -175 6 c-96 3 -176 6 -176 7
-37 52 -39 59 -44 207 l-5 150 -172 5 c-164 5 -173 6 -197 29 l-26 24 0 347
c0 336 1 348 21 374 l20 26 179 0 178 0 26 -31 c25 -30 26 -34 26 -172 0 -78
4 -147 8 -154 5 -7 61 -12 170 -15 l164 -3 29 -33 c32 -36 33 -45 29 -210 -1
-70 2 -107 10 -117 10 -12 44 -15 176 -15 215 0 204 9 204 -179 0 -77 4 -151
10 -165 l10 -26 561 0 561 0 29 -30 30 -30 -3 -155 c-3 -154 -3 -155 -31 -182
l-27 -28 -368 -5 -367 -5 -7 -45 c-3 -25 -7 -257 -7 -517 -1 -416 1 -473 15
-487 13 -13 43 -16 175 -16 l161 0 29 -29 29 -29 0 -157 c0 -152 -1 -156 -25
-180 l-24 -25 -360 0 c-314 0 -362 -2 -375 -16 -14 -13 -16 -59 -16 -345 l0
-331 -29 -29 -29 -29 -139 0 c-168 0 -204 9 -227 53 -16 29 -17 77 -14 553 l3
520 -165 -4 c-91 -2 -171 -5 -177 -7 -10 -3 -13 -45 -13 -164 l0 -160 -26 -20
c-25 -19 -40 -21 -199 -21 l-173 0 -26 31 c-25 30 -26 34 -26 172 0 78 -4 148
-9 156 -8 12 -70 15 -371 15 l-362 1 -24 28 c-23 27 -24 33 -24 186 0 218 -13
205 212 211 l173 5 5 155 c3 85 8 160 12 165 4 7 -56 9 -174 7 -175 -3 -181
-3 -204 19 l-24 22 0 522 c0 392 -3 524 -12 533 -8 8 -60 12 -169 12 l-157 0
-26 30 c-34 41 -40 79 -34 224 l5 121 -167 -3 c-165 -4 -167 -3 -195 21 -36
30 -42 81 -35 255 4 107 8 126 24 138 15 11 60 14 196 14 236 0 222 13 218
-216 l-3 -169 165 5 c91 3 171 9 178 13 16 11 18 648 2 678 -10 18 -25 19
-370 19 l-359 0 -27 24 c-24 20 -28 31 -31 92 -4 106 8 262 22 281 12 16 36
19 192 23 l178 5 0 155 0 155 -365 0 -365 0 -5 -157 c-5 -148 -6 -158 -29
-182 -24 -26 -25 -26 -192 -26 -163 0 -169 1 -196 24 l-28 24 -5 349 -5 348
-166 3 -166 2 -29 31 -29 30 -3 155 -4 154 -166 -2 -167 -3 -5 -155 c-3 -85
-9 -161 -13 -167 -6 -10 -2 -11 18 -3 15 6 93 10 175 10 l150 0 32 -29 33 -29
0 -345 0 -345 -24 -26 c-24 -26 -25 -26 -196 -26 -169 0 -172 0 -199 25 l-27
25 3 352 3 353 -165 -3 c-139 -2 -167 -6 -178 -19 -17 -24 -18 -2153 0 -2171
8 -8 58 -12 160 -12 168 0 199 -9 217 -61 7 -21 11 -144 11 -355 l0 -324 25
-6 c14 -3 91 -2 172 2 l148 9 5 162 c3 100 9 166 16 173 21 21 88 30 227 30
101 0 139 3 142 13 2 6 5 80 7 162 l3 150 -355 -3 c-254 -2 -362 1 -382 9 -58
24 -58 22 -58 406 l0 352 22 15 c18 13 54 16 193 16 234 -1 235 -2 235 -223
l0 -144 167 -6 168 -5 28 -34 28 -33 -3 -155 -3 -155 170 3 c94 2 173 6 177
10 3 4 8 80 10 169 3 148 2 160 -14 152 -22 -12 -300 -12 -331 0 -47 18 -59
66 -55 229 l3 148 -173 -1 -174 0 -24 28 c-23 27 -24 33 -24 191 0 214 -14
200 211 204 l169 3 30 -30 30 -29 0 -141 c0 -77 -4 -150 -9 -163 l-9 -23 187
3 c241 4 226 16 226 -187 0 -80 -3 -157 -7 -171 l-7 -25 177 3 177 3 30 -31
30 -31 5 -152 5 -152 167 -5 c153 -5 169 -7 188 -26 12 -12 25 -36 29 -55 4
-19 6 -177 3 -351 -5 -311 -5 -317 -27 -338 -21 -19 -31 -20 -200 -18 l-178 3
-21 28 c-19 25 -22 46 -26 180 l-5 152 -165 0 -165 0 -3 -157 -3 -158 158 0
c177 0 198 -6 226 -60 16 -30 18 -53 14 -165 -2 -71 -7 -137 -11 -145 -5 -13
17 -15 177 -12 180 3 183 3 204 -20 21 -22 21 -32 25 -366 3 -288 6 -345 18
-352 8 -6 84 -10 168 -10 l154 0 29 -31 29 -31 0 -142 c0 -97 4 -146 12 -154
9 -9 100 -12 349 -12 214 0 347 -4 367 -11 49 -17 63 -49 69 -158 3 -53 1
-122 -5 -155 l-9 -59 58 7 c32 3 115 3 185 -1 171 -8 164 0 164 -191 0 -102 4
-152 12 -160 8 -8 57 -12 154 -12 79 0 154 -4 168 -10 51 -19 61 -51 66 -214
l5 -151 168 -5 169 -5 24 -28 c23 -27 24 -35 24 -168 0 -126 2 -141 20 -159
20 -20 33 -20 775 -20 l756 0 25 -25 c25 -25 25 -26 22 -181 l-3 -156 -33 -29
-32 -29 -755 0 c-736 0 -755 0 -765 -19 -7 -13 -10 -260 -10 -730 0 -698 0
-711 -20 -731 -18 -18 -33 -20 -191 -20 l-171 0 -29 29 -29 29 0 709 c0 538
-3 712 -12 721 -9 9 -105 12 -369 12 l-357 0 -31 26 -31 26 0 148 c0 122 -3
151 -16 164 -13 13 -43 16 -174 16 l-158 0 -26 31 c-25 30 -26 34 -26 179 0
143 1 150 24 177 l24 28 172 3 c120 2 172 7 175 15 3 7 6 164 7 350 l3 337
-167 0 c-92 0 -169 -4 -172 -8 -3 -5 -8 -79 -12 -165 -5 -101 -12 -164 -20
-175 -10 -14 -40 -19 -191 -27 l-178 -10 -5 -163 c-7 -214 7 -202 -220 -202
-165 0 -168 0 -192 25 -32 31 -38 68 -38 223 l0 122 -152 1 c-84 1 -164 4
-177 8 -13 3 -34 19 -45 35 -21 27 -21 36 -21 541 0 358 -3 517 -11 525 -7 7
-71 12 -172 13 -155 2 -161 3 -186 26 -26 24 -26 25 -26 186 0 161 0 162 26
186 25 23 32 24 195 27 118 3 172 7 174 15 6 18 11 326 5 322 -3 -2 -346 -5
-763 -6 -416 -1 -762 -6 -769 -10 -9 -6 -14 -55 -18 -174 -5 -150 -7 -168 -24
-181 -15 -11 -59 -14 -193 -14 -171 0 -174 0 -198 25 l-25 24 0 340 c0 235 -3
342 -11 347 -6 3 -167 6 -357 6 -191 0 -355 2 -364 4 -9 3 -26 20 -38 38 -18
30 -20 50 -20 183 0 208 -9 200 246 194 155 -5 144 -16 144 158 0 113 -3 151
-14 160 -10 8 -269 10 -962 9 l-949 -3 -5 -168 c-5 -152 -7 -170 -24 -183 -15
-11 -60 -14 -197 -14 l-176 0 -27 26 c-26 27 -26 27 -26 186 l0 158 -167 -2
-168 -3 -3 -342 -2 -342 174 -3 c231 -4 216 10 216 -202 0 -139 -3 -164 -18
-184 -25 -32 -76 -41 -235 -42 l-138 0 3 -157 3 -158 162 -5 162 -5 30 -29 31
-30 0 -158 0 -158 166 0 166 0 34 -34 34 -34 0 -154 c0 -204 14 -191 -219
-198 l-176 -5 -3 -155 c-4 -216 9 -204 -214 -210 l-173 -5 -3 -156 -2 -156
177 -5 c227 -7 213 6 213 -205 0 -118 -4 -161 -15 -183 -9 -17 -17 -31 -18
-32 -1 -1 -81 -4 -177 -7 l-175 -6 0 -160 0 -160 167 -3 168 -2 0 156 0 156
29 29 c32 32 28 31 256 29 104 -1 111 -2 137 -27 l28 -27 0 -337 c0 -186 -3
-345 -6 -354 -14 -37 -57 -45 -229 -45 l-165 0 0 -154 c0 -152 0 -155 -26
-185 -25 -30 -28 -31 -112 -31 -48 0 -124 -3 -169 -7 l-83 -6 0 -718 0 -719
164 0 c162 0 165 0 195 -26 l31 -26 0 -158 c0 -144 -2 -160 -21 -184 l-20 -26
-162 0 c-89 0 -168 -4 -175 -8 -9 -7 -12 -46 -10 -163 l3 -154 171 -5 c151 -4
175 -7 193 -24 21 -19 21 -26 21 -371 0 -443 23 -403 -235 -408 l-150 -2 -3
-149 c-1 -86 2 -154 7 -159 5 -5 85 -12 178 -14 136 -3 171 -7 185 -20 16 -14
18 -35 18 -174 0 -111 4 -160 12 -165 18 -12 311 -13 326 -1 9 7 12 52 12 163
0 207 -15 194 223 194 240 0 227 11 227 -196 0 -103 4 -154 12 -162 17 -17
689 -17 706 0 8 8 12 58 12 159 0 125 -2 148 -16 153 -9 3 -84 6 -168 6 -149
0 -154 1 -180 25 -26 24 -26 25 -26 169 0 79 -3 151 -6 160 -5 14 -47 16 -370
16 l-363 0 -28 24 -28 24 0 542 0 542 28 24 c27 23 33 24 203 24 l174 0 0 154
0 154 35 31 36 31 158 0 c217 0 204 12 211 -202 l5 -163 773 -5 774 -5 19 -24
c17 -21 19 -40 19 -176 0 -115 3 -155 13 -164 10 -7 180 -11 563 -13 302 -2
558 -7 569 -12 16 -7 18 -7 8 5 -9 9 -13 57 -13 164 0 104 -4 155 -12 163 -8
8 -61 12 -173 12 -215 0 -205 -9 -205 196 0 103 -4 154 -12 162 -8 8 -61 12
-171 12 l-159 0 -29 29 -29 29 0 157 c0 152 1 156 25 180 l24 25 359 0 c265 0
361 3 370 12 18 18 17 677 0 683 -7 2 -87 5 -178 7 l-165 3 3 -164 c4 -223 16
-211 -211 -211 l-169 0 -29 29 -29 29 0 154 c0 84 4 158 8 164 26 38 55 44
210 44 123 0 157 -3 177 -16 l24 -16 -15 30 c-12 26 -14 83 -12 366 l3 334 24
26 24 26 369 0 c286 0 370 3 373 13 6 19 11 326 4 322 -3 -2 -83 -5 -178 -6
-165 -1 -174 0 -194 20 -21 21 -22 30 -27 369 l-5 347 -170 5 c-93 3 -176 9
-184 14 -30 19 -41 74 -41 200 0 69 4 135 9 148 l9 23 -173 -3 -173 -4 -33 30
-34 30 3 159 c3 212 -7 203 217 203 157 0 165 -1 191 -23 19 -16 29 -38 35
-73 10 -61 10 -175 0 -234 l-7 -45 170 3 c94 2 174 7 178 10 3 4 8 77 10 162
l3 155 -170 -3 -170 -3 -29 30 -29 30 2 342 c1 210 6 349 12 361 17 31 53 38
210 38 163 0 204 -10 214 -53 3 -12 5 -175 3 -362 l-3 -340 163 3 c169 4 212
-3 229 -36 4 -10 10 -170 13 -357 l5 -340 150 -2 c83 -2 160 -5 172 -8 12 -3
34 -22 48 -42 23 -35 25 -45 25 -165 0 -70 -4 -137 -9 -150 l-9 -23 172 3 172
4 32 -30 32 -30 0 -329 c0 -189 4 -334 10 -343 7 -12 41 -16 177 -18 226 -5
213 8 213 -212 0 -128 -3 -171 -14 -186 -14 -18 -35 -19 -593 -24 l-578 -5 0
-345 0 -345 164 -3 c91 -1 169 -7 175 -11 8 -7 10 41 8 164 l-3 173 27 21 c26
21 35 21 399 21 l372 0 21 -23 c21 -22 22 -33 22 -185 l0 -162 169 0 c93 0
177 -3 186 -6 41 -16 45 -47 45 -393 0 -336 -3 -370 -39 -388 -9 -4 -92 -10
-186 -13 l-170 -5 -3 -157 c-2 -123 0 -158 10 -158 7 0 54 -2 103 -4 50 -2
208 -4 353 -5 l264 -1 29 -29 29 -29 0 -157 c0 -152 -1 -156 -25 -180 l-24
-25 -570 0 -569 0 -4 -152 c-2 -84 -7 -160 -11 -168 -6 -13 39 -15 379 -12
l387 2 24 -22 c24 -22 24 -24 21 -188 l-3 -165 168 3 167 3 30 -30 30 -29 0
-161 c0 -220 6 -214 -238 -209 -144 3 -152 4 -177 28 l-26 25 3 165 3 165
-175 -6 c-96 -3 -176 -6 -177 -7 -2 -1 -3 -73 -3 -159 -1 -109 -4 -163 -13
-174 -29 -38 -48 -40 -405 -39 -191 1 -352 1 -359 0 -8 0 -12 -47 -15 -160 -4
-217 9 -205 -224 -205 l-176 0 -24 28 -24 28 0 342 c1 253 4 346 13 358 28 37
48 39 412 39 275 0 357 3 360 13 2 6 6 82 7 167 l3 155 -373 -3 -372 -2 -25
24 c-24 24 -25 29 -25 174 0 102 -4 152 -12 160 -8 8 -59 12 -166 12 -86 0
-162 5 -173 10 -17 10 -18 8 -9 -15 6 -15 10 -93 10 -174 0 -141 -1 -148 -23
-169 l-23 -22 -560 0 c-422 0 -563 -3 -572 -12 -8 -8 -12 -59 -12 -164 0 -139
-2 -154 -21 -178 l-21 -27 -383 3 c-357 3 -382 2 -374 -14 5 -9 9 -82 9 -161
0 -123 2 -146 16 -151 9 -3 89 -6 178 -6 146 0 165 -2 180 -18 14 -16 16 -43
17 -174 0 -85 -3 -161 -6 -169 -4 -12 19 -14 152 -11 87 1 168 5 181 7 22 5
22 8 22 165 0 147 2 162 20 180 19 19 33 20 372 20 264 0 359 3 378 13 25 12
25 14 30 169 4 133 8 160 23 175 15 16 41 18 191 21 l173 3 27 -31 26 -32 0
-338 c0 -186 -3 -346 -6 -354 -13 -34 -48 -41 -219 -46 l-170 -5 -1 -55 c-2
-256 -1 -250 -35 -281 l-32 -29 -567 2 -567 3 8 -30 c11 -36 11 -133 2 -240
-10 -118 0 -115 -353 -114 -157 0 -325 4 -373 7 -127 10 -127 11 -127 207 0
130 -2 154 -16 159 -31 12 -299 7 -312 -6 -8 -8 -12 -59 -12 -165 0 -206 15
-193 -219 -193 l-180 0 -20 26 c-19 24 -21 40 -21 175 0 136 -2 149 -19 159
-21 11 -249 14 -300 4 l-31 -6 0 -142 c0 -103 -4 -148 -14 -169 -14 -25 -14
-27 4 -17 10 6 92 10 184 10 160 0 166 -1 193 -24 l28 -24 5 -159 5 -158 171
-5 c151 -4 175 -7 193 -24 21 -19 21 -26 21 -376 0 -350 0 -357 -21 -376 -20
-18 -48 -19 -593 -24 l-571 -5 -5 -155 c-3 -85 -9 -161 -14 -169 -7 -12 -5
-13 10 -6 23 11 615 19 702 10 100 -11 102 -15 102 -198 0 -106 4 -157 12
-165 9 -9 103 -12 360 -12 334 0 348 1 358 20 7 13 10 252 10 727 l-1 708 26
23 26 22 554 0 c377 0 562 -3 578 -11 48 -22 57 -55 57 -212 0 -131 -2 -147
-21 -171 l-20 -26 -349 0 c-205 0 -359 -4 -375 -10 l-26 -10 3 -152 3 -153
365 -5 c386 -5 404 -8 415 -53 3 -12 6 -87 8 -167 l2 -145 167 -5 167 -5 30
-29 31 -30 0 -142 c0 -221 -3 -224 -233 -224 -132 0 -156 -2 -161 -16 -12 -31
-7 -289 6 -302 8 -8 59 -12 163 -12 104 0 155 4 163 12 8 8 12 59 12 163 0
150 0 152 26 176 25 24 29 24 201 24 225 0 213 11 213 -194 0 -80 4 -151 8
-157 4 -7 68 -13 176 -16 169 -5 170 -5 193 -32 22 -26 23 -35 23 -172 0 -80
-4 -153 -9 -162 -8 -16 4 -17 162 -14 95 1 178 5 185 7 9 3 12 45 12 165 0
212 -12 200 201 200 91 0 169 4 180 10 18 10 19 23 19 170 l0 159 28 21 c27
22 30 22 394 18 l366 -3 26 -24 26 -24 0 -522 c0 -392 3 -524 12 -533 9 -9
103 -12 361 -12 229 0 355 -4 368 -11 19 -9 19 -9 10 10 -7 13 -11 135 -11
355 l0 335 24 28 24 28 371 3 370 3 31 -28 31 -28 0 -149 c-1 -97 3 -154 10
-162 9 -11 48 -14 169 -14 144 0 160 -2 184 -21 l26 -20 0 -354 c0 -329 -1
-354 -19 -376 l-18 -23 -365 -4 -365 -5 -34 31 -34 30 -5 159 -5 158 -169 3
c-115 2 -174 6 -185 15 -13 10 -13 9 -5 -8 5 -11 9 -89 9 -172 l0 -153 -28
-27 -28 -28 -747 0 c-411 0 -753 -4 -759 -8 -10 -6 -13 -50 -13 -163 0 -151
-1 -156 -25 -179 -24 -25 -27 -25 -198 -25 l-174 0 -24 26 c-23 24 -24 34 -29
182 l-5 157 -170 0 -170 0 -5 -163 c-7 -215 9 -202 -230 -202 l-179 0 -20 26
c-19 24 -21 40 -21 173 0 101 -4 151 -12 159 -8 8 -57 12 -154 12 -228 0 -224
-4 -224 219 0 158 1 169 21 187 20 18 45 19 393 24 l371 5 5 160 5 160 -556 0
c-456 0 -559 -2 -572 -14 -16 -12 -17 -73 -17 -703 0 -456 4 -696 10 -709 10
-18 25 -19 361 -19 367 0 397 -3 413 -45 3 -9 6 -162 6 -339 0 -275 2 -325 16
-344 l15 -22 743 0 c707 0 744 1 759 18 14 16 17 43 17 165 0 197 -11 187 213
187 l169 0 29 -29 29 -29 0 -144 c0 -99 4 -148 12 -156 17 -17 1099 -17 1116
0 17 17 17 289 0 306 -8 8 -62 12 -175 12 -161 0 -164 0 -188 25 -24 24 -25
28 -25 180 l0 157 30 29 29 30 373 -3 373 -3 -3 148 c-4 162 3 197 44 216 15
7 87 11 183 11 145 0 161 -2 185 -21 l26 -20 0 -170 c0 -226 16 -211 -218
-207 l-177 3 3 -150 c2 -82 8 -157 13 -167 9 -16 26 -18 174 -18 217 0 205 11
205 -189 0 -123 3 -152 16 -165 13 -13 42 -16 163 -16 101 0 151 4 159 12 8 8
12 58 12 159 0 133 2 149 21 173 l20 26 164 0 c90 0 170 3 179 6 14 5 16 28
16 154 0 108 -3 151 -12 157 -7 4 -87 9 -178 11 -223 5 -210 -8 -210 213 l0
168 26 20 c25 19 40 21 188 21 113 0 166 4 174 12 8 8 12 58 12 160 0 145 1
150 25 173 l24 25 773 0 773 0 -3 142 c-4 210 17 188 -178 188 l-166 0 -29 29
-29 30 2 905 3 906 -162 0 c-89 0 -168 3 -177 6 -14 5 -16 -13 -16 -162 -1
-210 1 -207 -113 -215 -45 -3 -304 -4 -576 -4 l-494 2 -29 32 -29 33 3 156 3
157 -360 -3 c-225 -2 -364 -7 -370 -13 -6 -6 -11 -76 -12 -161 -4 -205 8 -194
-214 -200 -134 -3 -173 -7 -180 -19 -5 -8 -9 -80 -9 -160 0 -109 -4 -150 -14
-165 -13 -17 -34 -20 -198 -29 l-183 -10 -5 -158 -5 -159 -28 -24 c-27 -23
-33 -24 -196 -24 -167 0 -168 0 -192 26 l-24 26 0 349 0 350 25 19 c22 17 43
20 182 20 86 0 163 3 172 6 14 5 16 29 16 160 0 147 1 154 24 181 l24 28 174
5 173 5 5 157 c5 148 6 158 29 182 l24 26 567 0 567 0 24 -26 c23 -24 24 -34
27 -160 2 -74 -1 -147 -6 -162 l-9 -27 171 3 c94 2 177 5 184 7 9 3 12 44 12
160 l0 155 -117 0 c-143 1 -219 7 -243 20 -34 18 -42 61 -38 216 l3 149 -159
-3 c-243 -5 -246 -3 -246 206 0 148 10 192 45 206 9 3 93 6 186 6 215 0 203 9
212 -162 4 -68 4 -144 1 -169 l-6 -44 178 5 179 5 5 348 5 347 -373 0 -374 0
-30 30 -30 30 4 158 3 157 -161 -3 -162 -3 -36 31 -36 32 0 340 0 340 29 29
29 29 166 0 165 0 3 153 c2 83 7 159 11 167 6 13 -15 15 -173 12 l-180 -3 -25
25 -25 25 0 345 0 345 24 28 24 28 561 3 c627 3 614 4 626 -62 4 -19 5 -102 3
-184 -2 -99 0 -148 7 -144 6 4 84 9 175 12 l165 5 3 167 c3 220 -10 208 226
208 179 0 176 1 218 -43 1 -1 5 -162 8 -357 l5 -355 165 0 165 0 5 161 c4 142
7 165 24 183 20 22 23 22 402 19 l382 -3 -9 23 c-5 13 -9 255 -9 538 l0 516
29 29 29 29 155 0 c160 0 210 -9 227 -40 6 -10 10 -83 10 -162 0 -79 4 -149 8
-156 7 -10 126 -13 576 -15 l568 -2 19 -24 c19 -23 20 -39 17 -382 -2 -236 0
-355 7 -351 6 4 84 9 175 12 l165 5 5 353 c5 335 6 354 24 368 16 11 73 14
295 14 152 0 319 3 372 6 l96 7 5 350 6 351 26 23 c26 22 34 23 197 23 l169 0
0 163 c0 219 -13 207 219 207 l173 0 30 -31 31 -30 -6 -346 c-6 -434 16 -393
-219 -393 -126 0 -170 -3 -173 -12 -3 -7 -6 -250 -7 -541 l-3 -527 176 0 c232
0 219 13 219 -209 0 -159 -1 -162 -25 -186 -23 -24 -28 -25 -174 -25 -82 0
-160 4 -173 9 l-23 9 3 -149 c2 -88 0 -162 -7 -179 -9 -28 -9 -29 9 -20 10 5
90 10 178 10 146 0 161 -2 186 -21 l26 -20 0 -170 c0 -151 -2 -171 -18 -187
-16 -16 -42 -20 -164 -26 -80 -3 -151 -5 -159 -2 -47 15 -70 16 -62 4 4 -7 10
-83 13 -168 l5 -155 762 -3 763 -2 6 26 c4 14 5 65 2 112 -3 48 -2 112 1 142
l7 55 -178 -3 -178 -3 -25 25 c-24 25 -25 28 -25 175 0 161 7 192 47 210 14 7
87 11 182 11 146 0 160 -2 185 -21 l27 -21 -3 -173 -3 -172 28 9 c15 6 95 9
177 7 148 -4 150 -4 177 -32 28 -27 28 -29 33 -185 l5 -157 165 0 165 0 3 156
c2 155 2 157 -20 163 -13 3 -92 6 -176 6 l-152 0 -20 33 c-18 28 -20 50 -20
185 0 149 1 154 25 177 24 25 27 25 195 25 l170 0 0 154 0 154 29 31 29 31
365 0 365 0 31 -35 31 -36 0 -129 c0 -212 -2 -213 -230 -220 l-165 -5 -5 -723
-5 -724 -28 -24 c-27 -23 -34 -24 -185 -24 -138 0 -161 2 -189 20 -18 11 -35
30 -38 42 -3 13 -6 88 -8 168 l-2 145 -565 0 -565 0 -3 -150 c-2 -132 -1 -151
15 -162 12 -9 65 -13 179 -13 l163 0 21 -27 c21 -27 21 -33 18 -363 -2 -184
-7 -342 -11 -350 -6 -13 17 -15 180 -15 l188 0 -3 171 -3 172 27 21 c25 20 39
21 196 21 167 0 169 0 194 -25 25 -25 25 -26 22 -188 l-3 -162 170 3 c94 2
171 5 172 5 1 1 5 75 9 164 6 143 9 164 26 180 17 15 46 19 192 23 l171 5 5
155 c6 161 10 184 41 200 28 15 352 13 368 -2 12 -11 12 -9 6 7 -13 30 -18
267 -7 306 l9 34 -174 -3 c-199 -4 -215 1 -233 68 -7 26 -10 208 -8 540 l3
502 33 29 32 29 359 0 c318 0 360 2 365 16 11 28 7 644 -4 665 -10 17 -23 19
-164 19 -113 0 -156 -3 -164 -13 -7 -8 -11 -69 -10 -159 0 -86 -4 -154 -11
-166 -17 -32 -66 -42 -212 -42 -218 0 -222 4 -229 224 l-5 151 -370 5 -370 5
3 -161 c3 -159 3 -162 -21 -190 l-25 -29 -765 0 -765 0 -26 24 c-26 24 -26 25
-26 188 0 150 2 165 20 183 20 20 30 20 793 18 l772 -3 -2 530 c0 323 3 540 9
556 15 42 46 49 213 49 l155 0 32 -29 33 -29 3 -156 3 -156 565 0 565 0 -3
158 -3 157 -559 3 c-616 2 -578 -2 -612 64 -20 39 -19 268 1 308 31 61 26 60
416 60 316 0 358 2 363 16 10 26 7 250 -4 278 l-10 26 -360 0 -360 0 0 -151 0
-151 -34 -34 -34 -34 -164 0 c-163 0 -165 0 -188 25 l-24 26 -2 442 c-1 243
-2 484 -3 535 l-1 92 -160 0 c-239 0 -244 5 -238 224 3 133 3 135 32 165 l30
31 167 0 168 0 6 54 c4 29 3 103 -1 162 l-9 109 -166 3 -166 2 -29 31 c-29 30
-29 30 -34 187 l-5 157 -167 3 -167 2 -25 31 -26 31 0 342 c0 336 0 343 21
362 20 18 44 19 578 19 306 0 568 -3 583 -8 15 -4 33 -17 40 -30 14 -24 14 29
16 -1344 l2 -863 164 0 c91 0 167 4 171 9 3 5 6 162 8 349 l2 340 24 26 c24
26 25 26 192 26 152 0 167 2 171 18 10 36 -4 297 -16 304 -6 4 -81 8 -167 8
-154 0 -156 0 -180 26 l-24 26 -5 906 -5 907 -175 6 c-96 3 -176 6 -178 7 -1
1 -11 17 -22 35 -17 28 -20 50 -20 178 0 132 2 149 21 172 l20 27 177 2 177 3
3 135 c1 74 0 145 -3 157 l-5 23 -564 2 c-538 3 -565 4 -585 22 -20 18 -21 29
-21 192 l0 174 27 17 c25 17 73 18 588 23 l560 5 3 144 c2 97 -1 148 -9 157
-10 12 -163 14 -959 14 l-948 0 -6 -22 c-8 -30 -8 -262 0 -282 5 -14 29 -16
166 -16 123 0 166 -3 188 -15 17 -9 31 -17 32 -18 1 -1 5 -162 8 -357 l5 -355
170 -3 c232 -4 218 9 225 -204 l5 -163 356 -3 355 -2 35 -36 34 -35 0 -155 0
-156 -28 -24 -29 -24 -765 2 -765 3 -24 30 c-22 28 -24 39 -26 185 l-3 155
-166 3 -166 2 -29 31 -29 30 -5 337 -5 337 -173 5 c-168 5 -174 6 -193 29 -18
22 -19 44 -19 369 l0 346 27 28 27 28 155 0 c86 0 162 4 169 8 9 7 12 83 10
348 l-3 339 -145 7 c-80 4 -155 6 -167 3 l-22 -5 -3 -346 -3 -346 -33 -29 -32
-29 -348 0 c-454 0 -436 -10 -430 228 l3 134 33 29 32 29 154 0 c119 0 156 3
165 14 8 9 11 61 9 162 l-3 149 -167 3 -166 2 -4 -161 -3 -161 -33 -29 -32
-29 -165 0 c-159 0 -165 1 -192 24 l-28 24 3 144 c1 79 0 153 -3 166 -5 22 -8
22 -169 22 -162 0 -165 0 -195 26 l-31 26 0 349 0 350 25 24 c24 25 27 25 189
25 160 0 166 -1 193 -24 l28 -24 5 -159 5 -158 765 0 765 0 5 328 c3 181 1
335 -3 343 -6 11 -39 14 -165 14 -139 0 -161 2 -190 20 l-32 20 2 360 c3 297
1 359 -10 355 -8 -3 -88 -5 -178 -5 l-164 0 0 -529 0 -529 -26 -31 -26 -31
-168 0 c-164 0 -170 1 -197 24 l-28 24 -5 724 -5 723 -166 3 c-91 1 -168 -1
-172 -4z m-1247 -1459 c62 -32 60 -7 60 -762 0 -670 -1 -689 -20 -721 -11 -18
-32 -37 -46 -42 -14 -6 -169 -10 -365 -10 -362 0 -384 3 -409 49 -5 11 -10 85
-10 165 0 146 0 146 28 177 l28 32 158 -2 c107 -1 163 2 172 10 12 9 14 100
14 530 l0 518 31 36 31 35 150 0 c114 0 156 -4 178 -15z m-4367 -368 c53 -23
59 -46 55 -218 l-3 -154 174 3 c234 4 221 16 221 -209 0 -224 15 -208 -208
-212 l-173 -2 -31 34 -30 34 3 156 4 156 -172 -3 -172 -4 -25 27 c-34 36 -39
71 -34 227 4 128 4 131 31 154 27 23 35 24 178 24 103 0 160 -4 182 -13z
m2018 -16 l29 -29 0 -531 0 -530 -24 -28 -24 -28 -570 -3 -570 -3 -31 27 -31
26 0 539 0 540 25 24 24 25 571 0 572 0 29 -29z m1583 -372 l26 -20 0 -164 0
-163 -35 -31 -36 -31 -157 0 c-220 1 -222 3 -222 230 0 147 1 152 25 175 24
25 27 25 198 25 161 0 176 -2 201 -21z m1583 -11 l33 -32 0 -152 c0 -149 -1
-153 -26 -183 l-26 -31 -172 0 -173 0 -24 26 c-23 25 -24 30 -24 189 0 159 1
164 24 189 24 26 25 26 190 26 l165 0 33 -32z m-392 -743 c24 -23 25 -28 25
-179 l0 -154 -31 -31 -31 -31 -163 0 c-161 0 -164 0 -194 26 l-31 26 0 149 0
148 31 36 31 35 169 0 c167 0 170 0 194 -25z m1191 -9 l34 -34 0 -150 c0 -208
14 -196 -222 -202 l-183 -5 -3 -153 c-3 -176 -10 -195 -75 -213 -29 -7 -143
-9 -379 -4 l-339 8 -24 29 c-24 28 -25 35 -25 169 0 148 9 187 49 209 11 5 87
10 173 10 107 0 158 4 166 12 8 8 12 59 12 164 l0 153 26 20 c26 20 38 21 391
21 l365 0 34 -34z m-11500 -369 c22 -26 24 -36 23 -135 -1 -154 -11 -210 -40
-233 -22 -17 -49 -19 -391 -19 l-366 0 -26 31 c-26 30 -26 33 -26 185 0 198
-11 187 188 195 81 3 252 5 380 5 l234 -1 24 -28z m9112 13 l32 -20 0 -163 0
-163 -31 -30 -30 -29 -167 -5 -167 -5 -3 -157 c-3 -207 7 -198 -216 -198 -113
0 -166 -4 -174 -12 -8 -8 -12 -56 -12 -150 0 -147 -9 -186 -49 -208 -11 -6
-88 -10 -176 -10 l-157 0 -29 29 -29 29 0 332 c0 347 4 378 45 394 9 3 85 6
169 6 105 0 156 4 164 12 8 8 12 59 12 164 l0 152 31 26 31 26 361 0 c343 0
364 -1 395 -20z m-9913 -392 l25 -30 0 -523 0 -523 -26 -31 -26 -31 -171 0
-171 0 -28 27 -28 27 0 163 0 163 -169 0 c-165 0 -171 1 -198 24 l-28 24 -3
150 -3 150 29 34 30 33 169 5 168 5 5 160 c3 88 9 168 14 178 11 24 31 27 186
30 181 3 195 1 225 -35z m1188 1 c27 -29 27 -31 27 -164 0 -73 -4 -144 -9
-157 l-9 -23 179 3 179 3 32 -31 31 -31 -7 -157 c-10 -214 3 -202 -219 -202
l-169 0 -29 29 -29 29 0 152 c0 96 4 159 12 173 10 20 10 21 -6 7 -14 -11 -57
-15 -176 -18 l-158 -4 -38 35 -39 36 0 145 c0 145 0 146 27 173 35 35 86 42
248 36 123 -5 126 -5 153 -34z m7146 12 c28 -28 34 -73 29 -223 -5 -176 6
-168 -225 -168 l-174 0 -24 26 c-24 26 -25 31 -25 178 0 148 1 152 25 179 l26
27 174 0 c160 0 177 -2 194 -19z m1986 -7 c24 -26 25 -31 25 -181 0 -150 -1
-155 -25 -178 -24 -25 -27 -25 -198 -25 -171 0 -175 0 -201 25 -26 24 -26 25
-26 175 l0 152 29 29 29 29 172 0 171 0 24 -26z m786 -3 l29 -29 0 -144 c0
-79 4 -148 8 -155 5 -8 61 -13 181 -15 224 -4 211 8 211 -205 l0 -155 -29 -29
-29 -29 -359 0 -358 1 -35 29 -35 29 -3 334 -3 334 26 32 27 31 170 0 170 0
29 -29z m1587 9 c31 -29 34 -50 30 -205 -3 -136 -3 -137 -31 -161 l-28 -24
-359 0 c-242 0 -367 4 -383 11 -39 18 -47 50 -47 190 0 136 10 176 47 198 11
7 154 11 384 11 353 0 366 -1 387 -20z m-11909 -381 l31 -31 0 -154 0 -154
168 0 168 0 30 -31 29 -30 5 -157 5 -157 178 -5 c231 -6 217 7 217 -207 l0
-155 -29 -29 -29 -29 -166 0 c-196 0 -178 19 -174 -180 l3 -135 172 -5 c166
-5 172 -6 198 -30 l26 -25 -3 -162 c-4 -217 10 -204 -220 -212 l-173 -6 0
-155 0 -155 173 -5 174 -5 24 -28 c23 -27 24 -34 24 -172 0 -79 -4 -155 -10
-170 -17 -44 -62 -55 -230 -55 -112 0 -152 -3 -155 -12 -2 -7 -6 -80 -7 -163
l-3 -150 573 3 573 2 26 -26 26 -26 -5 -166 c-5 -157 -7 -167 -28 -184 -21
-17 -56 -18 -589 -18 l-567 0 -27 28 c-27 28 -27 29 -27 176 0 82 5 156 10
167 10 17 8 18 -15 9 -16 -6 -174 -10 -386 -10 l-359 0 0 -162 c0 -220 13
-208 -217 -208 -171 0 -174 0 -198 25 l-25 24 0 349 0 349 23 21 c23 21 29 22
388 24 l364 3 0 160 0 160 -563 5 -564 5 -24 28 -24 28 0 341 c0 337 0 342 22
365 21 22 26 23 209 23 161 0 188 -2 200 -16 10 -12 15 -62 19 -178 l5 -161
168 -3 167 -2 0 153 c0 141 2 157 21 180 l20 27 172 2 172 3 3 348 2 347 -169
0 -169 0 -26 31 -26 31 0 348 0 349 26 20 c25 19 40 21 195 21 l167 0 31 -31z
m7152 2 l29 -29 0 -144 c0 -79 4 -148 8 -155 5 -8 60 -13 176 -15 l168 -3 25
-29 c24 -28 24 -31 21 -188 l-3 -160 -28 -24 -28 -24 -352 0 c-194 0 -361 3
-372 6 -11 3 -30 20 -43 38 -22 32 -22 37 -22 370 l0 337 25 24 c24 25 27 25
195 25 l172 0 29 -29z m5153 8 l26 -20 0 -153 c0 -105 4 -156 12 -164 8 -8 61
-12 171 -12 l159 0 35 -35 34 -34 -3 -151 c-3 -148 -3 -150 -31 -177 l-27 -28
-757 -3 c-533 -2 -760 -6 -770 -13 -10 -9 -13 -80 -13 -349 l0 -339 -26 -20
c-26 -20 -38 -21 -380 -21 -200 0 -364 4 -378 10 -46 17 -56 55 -56 210 l0
142 30 30 31 30 153 -3 c119 -3 157 -1 169 10 15 12 17 49 17 348 l0 335 31
29 31 29 552 0 c416 0 555 3 564 12 8 8 12 58 12 159 0 145 0 147 26 173 l27
26 167 0 c154 0 169 -2 194 -21z m-3170 -370 l26 -20 0 -351 0 -350 -31 -29
-31 -29 -167 0 c-167 0 -168 0 -192 26 -23 24 -24 34 -29 182 l-5 157 -167 5
-167 5 -30 29 -31 30 0 154 0 154 31 29 31 29 368 0 c356 0 368 -1 394 -21z
m791 -10 l36 -32 -3 -713 -3 -714 -28 -27 -27 -28 -170 -3 -170 -3 0 -147 c0
-123 -3 -152 -17 -172 -33 -48 -39 -49 -214 -50 l-166 0 -27 26 -26 27 0 528
0 527 31 31 31 31 157 0 c109 0 161 4 169 12 9 9 12 100 12 346 l0 334 29 29
29 29 161 0 160 0 36 -31z m-10329 -383 l34 -34 0 -151 c0 -148 -1 -153 -25
-176 -24 -25 -27 -25 -194 -25 -165 0 -171 1 -198 24 l-28 24 0 155 c0 213 4
216 234 217 l143 0 34 -34z m8731 10 l28 -24 5 -159 5 -158 167 -5 167 -5 30
-29 31 -30 0 -328 c0 -348 -4 -379 -47 -392 -10 -3 -90 -7 -179 -8 l-160 -3
-32 34 -32 35 -2 150 -3 151 -167 5 c-234 7 -212 -32 -216 378 -2 180 0 337 3
350 3 12 14 31 25 42 18 18 34 20 184 20 160 0 166 -1 193 -24z m4772 -8 l31
-32 0 -338 0 -339 -25 -24 c-24 -25 -27 -25 -195 -25 -167 0 -171 1 -195 24
-13 13 -26 39 -30 57 -3 19 -5 172 -3 341 l3 307 29 30 30 31 162 0 162 0 31
-32z m-11512 -741 c28 -27 28 -29 31 -171 4 -158 -7 -200 -51 -211 -12 -3 -95
-7 -185 -8 l-163 -2 -25 28 c-23 27 -24 34 -24 180 0 163 6 188 54 207 11 5
92 8 178 7 158 -2 158 -2 185 -30z m5162 7 l31 -26 0 -154 0 -154 -29 -32 -29
-33 -172 0 -172 0 -24 28 c-23 27 -24 33 -24 188 0 156 1 160 25 184 24 25 27
25 194 25 168 0 170 0 200 -26z m802 -3 l29 -29 0 -336 c0 -354 -2 -375 -47
-395 -16 -7 -141 -11 -384 -11 l-361 0 -29 29 -29 29 0 151 0 151 29 32 29 33
169 5 168 5 5 163 c7 215 -7 202 222 202 l170 0 29 -29z m5150 -10 l39 -39 0
-136 c0 -161 -9 -189 -68 -207 -26 -7 -197 -10 -579 -7 l-543 3 -24 25 c-24
24 -25 30 -28 188 l-3 164 28 24 28 24 556 0 555 0 39 -39z m-6362 -355 c34
-31 43 -81 39 -224 -3 -132 -3 -134 -31 -158 -27 -23 -33 -24 -190 -24 -228 0
-231 3 -225 228 4 200 7 203 234 199 134 -2 154 -4 173 -21z m7139 8 c44 -31
52 -63 52 -218 l0 -144 170 -4 170 -3 27 -28 28 -27 0 -155 0 -155 -28 -27
-27 -28 -170 -3 -170 -4 -1 -56 c0 -32 -2 -102 -5 -157 -4 -96 -6 -101 -34
-127 l-30 -28 -556 0 -556 0 -29 29 -29 29 0 153 c0 152 0 153 27 181 l27 28
300 1 c166 1 330 4 366 8 l65 6 5 348 5 349 28 24 c27 23 34 24 185 24 127 0
162 -3 180 -16z m-5144 -20 c26 -27 26 -28 26 -181 l0 -155 -29 -29 -29 -29
-165 0 -165 0 -27 32 -26 31 3 158 c4 212 -10 199 213 199 l172 0 27 -26z
m2393 4 c22 -21 23 -27 23 -185 l0 -164 -26 -24 -27 -25 -367 0 -366 0 -30 31
-29 30 0 149 0 149 29 30 30 31 370 0 c366 0 370 0 393 -22z m-8768 -359 c17
-6 36 -19 41 -29 6 -10 10 -91 10 -179 0 -182 -4 -193 -76 -207 -20 -4 -190
-5 -377 -2 l-341 5 -23 27 c-22 26 -23 34 -23 185 0 175 4 187 60 201 55 13
692 12 729 -1z m6770 -15 l31 -26 0 -159 c0 -156 -1 -160 -25 -184 -24 -25
-27 -25 -193 -25 l-170 0 -31 29 -31 29 0 147 0 147 34 34 34 34 160 0 c158 0
161 0 191 -26z m1198 -7 c27 -27 28 -30 31 -163 4 -151 1 -175 -28 -204 -18
-18 -34 -20 -199 -20 l-180 0 -20 26 c-19 24 -21 40 -21 181 l0 155 30 29 30
30 165 -3 165 -3 27 -28z m2389 0 c23 -27 24 -35 24 -163 0 -140 -9 -184 -45
-214 -14 -12 -55 -16 -187 -18 l-168 -4 2 -156 3 -157 167 -5 c167 -5 168 -5
195 -33 28 -27 28 -28 28 -170 0 -78 -3 -154 -8 -169 -15 -54 -8 -53 -607 -53
-305 0 -561 -4 -567 -8 -10 -6 -13 -125 -13 -538 l0 -530 -25 -24 -24 -25
-568 0 c-544 0 -569 1 -593 20 -25 18 -25 22 -30 187 l-5 168 -565 0 -565 0
-3 -155 -3 -155 -31 -32 -32 -33 -156 0 c-108 0 -160 -4 -168 -12 -8 -8 -12
-58 -12 -160 0 -145 -1 -150 -25 -173 -24 -25 -27 -25 -189 -25 -160 0 -166 1
-193 24 l-28 24 0 350 0 350 24 26 c24 26 25 26 193 26 l168 0 0 154 c0 151 1
155 26 185 l25 31 172 2 172 3 3 160 c2 147 4 161 24 182 l21 23 371 0 371 -1
30 -24 30 -25 5 -157 5 -158 367 -5 c455 -6 411 16 418 -208 l5 -157 170 0
170 0 3 115 c2 63 0 134 -3 158 l-6 42 -159 0 -160 0 -32 29 -33 29 0 156 0
156 28 27 27 28 161 2 c88 2 165 5 170 8 5 4 9 75 9 160 l0 153 31 26 31 26
354 0 354 0 15 23 c13 20 14 67 9 345 l-5 322 30 30 30 31 371 -3 372 -3 24
-28z m-3984 -374 l28 -27 0 -156 c0 -155 0 -157 -26 -181 -25 -23 -32 -24
-188 -27 l-163 -3 -31 36 -32 36 0 127 c0 136 11 196 38 211 9 6 91 11 181 11
l165 0 28 -27z m2393 2 c24 -23 25 -28 25 -179 l0 -154 -35 -31 -36 -31 -157
0 -158 0 -30 31 c-28 29 -29 34 -33 145 -4 142 4 198 32 224 19 18 35 20 194
20 171 0 174 0 198 -25z m-2783 -372 l28 -27 0 -154 0 -154 -29 -29 -29 -29
-168 0 c-226 0 -214 -12 -214 206 l0 162 31 26 c30 26 33 26 192 26 l161 0 28
-27z m2383 -3 c31 -32 29 -10 25 -302 0 -14 -12 -40 -26 -57 l-26 -31 -368 0
-368 0 -26 31 c-25 30 -26 34 -26 183 0 149 1 154 25 180 l24 26 369 0 368 0
29 -30z m-11404 -350 l257 0 31 -26 30 -25 3 -157 3 -157 173 -5 c225 -6 212
6 212 -207 l0 -155 -29 -29 -29 -29 -166 0 -166 0 0 -349 0 -349 -31 -26 -31
-26 -360 0 -360 0 -34 34 -34 34 0 709 0 709 28 26 c36 35 52 38 156 33 49 -3
205 -5 347 -5z m9327 1 c66 -5 87 -11 98 -26 11 -14 14 -57 14 -176 l0 -157
-36 -32 -36 -31 -160 3 -160 3 -24 28 c-23 27 -24 34 -24 180 l0 151 32 33
c32 33 33 33 122 32 50 0 129 -4 174 -8z m-3081 -23 c22 -21 23 -27 23 -184 0
-222 14 -208 -213 -212 l-174 -3 -31 26 -32 27 0 158 c0 144 2 160 21 184 l20
26 182 0 c172 0 182 -1 204 -22z m-3972 -373 l25 -24 0 -530 c0 -291 -3 -537
-6 -546 -17 -44 -32 -45 -614 -45 -589 0 -593 0 -620 49 -16 31 -14 1063 3
1083 29 37 43 37 620 38 l568 0 24 -25z m6360 0 l25 -24 0 -526 c0 -555 -1
-572 -45 -589 -9 -3 -273 -6 -586 -6 l-570 0 -24 25 -25 24 0 537 0 538 22 23
21 23 579 0 579 0 24 -25z m6342 1 l28 -24 0 -537 0 -537 -28 -24 -28 -24
-563 0 c-540 0 -565 1 -587 19 -22 17 -25 29 -30 133 -4 62 -6 306 -4 541 l3
428 23 25 22 24 568 0 568 0 28 -24z m-8748 -361 c16 -8 31 -22 35 -30 3 -9 6
-90 6 -180 l0 -164 -27 -21 c-26 -20 -36 -21 -201 -18 l-174 3 -24 28 c-23 27
-24 34 -24 186 0 158 0 158 26 185 27 26 27 26 191 26 124 0 171 -4 192 -15z
m15 -756 l26 -20 0 -173 c0 -155 -2 -175 -18 -189 -16 -14 -48 -17 -201 -19
l-183 -3 -24 28 c-23 27 -24 33 -24 186 0 163 3 176 45 199 12 7 85 12 186 12
153 0 168 -2 193 -21z m-400 -2250 l27 -21 -3 -167 -3 -166 162 3 c173 4 209
-4 233 -49 7 -13 10 -76 8 -177 l-3 -157 171 3 c170 3 172 3 200 -22 l29 -24
3 -156 3 -156 -30 -30 -29 -30 -166 0 c-160 0 -166 1 -193 24 -28 24 -28 25
-31 161 -2 75 1 148 6 163 l9 27 -167 -3 c-184 -4 -221 4 -240 54 -14 36 -13
290 1 316 10 18 9 20 -6 15 -9 -4 -85 -7 -168 -7 -84 0 -158 -4 -165 -9 -10
-6 -13 -79 -12 -344 l0 -335 -24 -29 -24 -28 -174 -5 -173 -5 -3 -153 c-2
-117 0 -153 10 -157 7 -2 174 -6 371 -8 448 -5 407 16 407 -208 0 -152 -1
-159 -24 -186 l-24 -28 -569 -5 -568 -5 -5 -163 c-5 -157 -6 -165 -29 -183
-22 -18 -53 -19 -985 -19 -740 1 -965 3 -977 13 -37 28 -39 49 -39 396 0 337
0 340 22 361 20 18 35 20 189 20 163 0 169 -1 196 -24 l28 -24 5 -159 5 -158
170 0 170 0 3 158 3 157 -160 0 c-88 0 -171 4 -185 10 -43 16 -51 44 -56 210
l-5 155 -367 5 c-366 5 -368 5 -390 28 -22 21 -23 31 -26 187 -3 154 -2 165
17 184 20 20 30 21 384 21 269 0 366 3 375 12 8 8 12 56 12 150 0 147 9 186
49 208 13 7 275 10 773 10 698 0 755 -2 774 -18 12 -9 27 -27 33 -39 13 -26
15 -271 2 -305 l-9 -23 171 3 c101 2 177 8 184 14 18 15 18 277 1 301 -11 14
-37 17 -178 19 l-164 3 -23 34 c-21 32 -23 44 -23 181 0 134 2 150 21 174 l20
26 573 0 c568 0 574 0 600 -21z m795 -5 l31 -26 0 -162 c0 -220 13 -207 -225
-204 l-178 3 -21 28 c-19 25 -21 44 -23 162 -2 140 6 192 34 213 12 8 66 12
184 12 166 0 168 0 198 -26z m396 -2619 c24 -24 25 -27 25 -186 0 -221 12
-209 -210 -209 l-166 0 -30 31 -29 30 -3 150 -3 149 30 30 29 30 167 0 c163 0
166 0 190 -25z m1592 1 l28 -24 0 -536 0 -535 -23 -23 -23 -23 -557 -3 c-306
-1 -567 0 -579 3 -12 3 -32 15 -43 27 -20 21 -20 33 -20 551 l0 529 29 29 29
29 566 0 565 0 28 -24z m-2385 -1503 l28 -27 0 -160 c0 -218 13 -206 -221
-206 l-177 0 -26 31 c-26 30 -26 33 -26 189 l0 159 26 20 c25 19 40 21 197 21
l171 0 28 -27z m-422 -358 c16 -8 34 -24 40 -34 5 -11 10 -85 10 -166 l0 -147
-29 -29 -29 -29 -144 0 c-79 0 -153 -3 -164 -6 -20 -5 -22 -13 -26 -166 -6
-211 8 -198 -222 -198 l-172 0 -27 28 c-27 28 -27 29 -27 175 0 134 -2 147
-19 157 -11 6 -87 10 -175 10 -208 0 -196 -13 -196 208 0 178 2 187 50 205 8
3 259 6 558 6 466 1 547 -1 572 -14z m-1560 -375 c25 -19 25 -21 28 -184 3
-166 3 -166 -22 -191 l-25 -25 -374 0 -374 0 -27 25 -26 24 0 161 c0 158 1
161 25 185 l24 25 373 0 c352 0 374 -2 398 -20z"/>
<path d="M9672 15538 c-8 -8 -12 -57 -12 -153 0 -96 4 -145 12 -153 8 -8 59
-12 163 -12 104 0 155 4 163 12 8 8 12 57 12 153 0 96 -4 145 -12 153 -17 17
-309 17 -326 0z"/>
<path d="M3312 9408 l3 -163 168 -3 167 -2 0 165 0 165 -170 0 -170 0 2 -162z"/>
<path d="M9671 9556 c-8 -9 -11 -61 -9 -162 l3 -149 170 0 170 0 3 149 c2 101
-1 153 -9 162 -9 11 -46 14 -164 14 -118 0 -155 -3 -164 -14z"/>
<path d="M16010 9405 l0 -165 173 2 172 3 0 160 0 160 -172 3 -173 2 0 -165z"/>
<path d="M5865 5830 c-313 -3 -571 -6 -573 -8 -1 -1 -1 -73 0 -159 l3 -158
177 -5 c153 -4 180 -7 195 -23 15 -15 19 -42 23 -180 l5 -162 170 0 170 0 2
150 c3 171 6 190 30 201 10 5 95 11 188 14 l170 5 5 165 c3 91 5 165 5 165 0
0 -256 -2 -570 -5z"/>
<path d="M9815 3570 l-150 -5 0 -155 0 -155 170 0 170 0 3 149 c3 147 -3 179
-32 174 -6 -1 -78 -5 -161 -8z"/>
<path d="M15220 17663 c0 -76 -4 -153 -10 -171 -8 -29 -7 -33 6 -28 9 3 90 6
180 6 l164 0 -2 163 -3 162 -167 3 -168 2 0 -137z"/>
<path d="M5862 11443 c-117 -3 -164 -7 -167 -16 -2 -6 -5 -82 -7 -167 l-3
-155 165 3 c94 2 169 7 177 13 15 13 24 330 8 327 -5 -1 -83 -4 -173 -5z"/>
<path d="M6081 9557 c6 -10 9 -156 7 -352 l-3 -335 167 0 c119 0 169 3 174 12
4 7 9 82 11 167 5 204 -9 191 214 191 127 0 171 3 174 13 2 6 5 82 7 167 l3
155 -382 0 c-360 0 -381 -1 -372 -18z"/>
<path d="M5823 8823 l-133 -4 0 -160 0 -159 173 2 172 3 3 163 3 162 -43 -2
c-24 -1 -103 -4 -175 -5z"/>
<path d="M9243 8073 c-205 -2 -374 -4 -375 -6 -1 -1 -4 -75 -7 -163 l-6 -161
373 -2 c205 -1 380 -5 389 -8 13 -5 14 -3 3 16 -8 15 -10 71 -8 177 2 85 3
153 3 152 0 -2 -168 -4 -372 -5z"/>
<path d="M12826 8073 c-245 -2 -364 -7 -373 -14 -18 -15 -19 -289 -1 -307 9
-9 104 -12 366 -12 231 0 360 -4 373 -11 20 -10 20 -10 3 22 -14 27 -16 56
-12 181 2 81 4 147 4 146 -1 -2 -163 -4 -360 -5z"/>
<path d="M14607 8073 c-121 -3 -169 -7 -172 -16 -2 -6 -5 -82 -7 -167 l-3
-155 181 0 182 0 -9 23 c-12 32 -11 264 1 296 5 14 6 25 2 24 -4 -1 -83 -4
-175 -5z"/>
<path d="M3317 8064 c-4 -4 -7 -69 -7 -145 0 -76 -4 -148 -9 -161 l-9 -23 177
5 176 5 0 160 0 160 -161 3 c-88 1 -163 -1 -167 -4z"/>
<path d="M11638 7902 c4 -221 19 -206 -214 -210 -170 -3 -174 -4 -179 -25 -10
-46 -10 -315 0 -309 6 4 174 9 375 12 l365 5 3 335 c2 306 1 336 -15 348 -12
8 -65 12 -177 12 l-161 0 3 -168z"/>
<path d="M3090 7700 l-164 -5 -7 -25 c-13 -45 -10 -275 3 -288 8 -8 58 -12
161 -12 81 0 156 -4 165 -9 16 -8 17 5 17 170 0 98 -2 178 -5 177 -3 -1 -79
-5 -170 -8z"/>
<path d="M13225 7534 c0 -141 3 -173 13 -169 8 3 85 5 173 5 l159 0 0 160 0
160 -149 0 c-82 0 -160 4 -173 9 l-23 9 0 -174z"/>
<path d="M14376 7703 c-4 -5 -85 -10 -179 -13 l-172 -5 -3 -135 c-1 -74 0
-145 3 -157 5 -22 9 -22 173 -25 92 -2 175 -7 186 -12 16 -8 17 -7 6 13 -8 15
-10 72 -8 182 2 87 3 159 2 159 0 0 -4 -3 -8 -7z"/>
<path d="M9655 7534 l0 -169 181 0 181 0 -8 35 c-5 19 -9 92 -9 163 l0 127
-122 0 c-68 0 -145 3 -173 6 l-50 6 0 -168z"/>
<path d="M9440 7320 l-175 -5 -5 -162 c-7 -219 6 -207 -221 -211 -118 -3 -172
-7 -174 -15 -2 -7 -6 -79 -7 -162 l-3 -150 376 3 c360 3 377 2 400 -17 24 -19
24 -22 24 -188 l0 -168 183 0 c148 0 181 3 177 13 -3 8 -5 165 -5 350 l0 337
-177 1 -176 1 -25 28 c-23 28 -24 31 -20 192 1 89 3 162 3 161 0 -1 -79 -5
-175 -8z"/>
<path d="M10045 7158 l0 -168 181 0 c168 0 182 -1 202 -20 22 -21 22 -24 22
-373 l0 -352 162 3 c90 1 169 5 176 7 9 3 12 81 12 343 0 331 1 340 21 366
l21 27 188 -3 187 -3 -14 22 c-12 18 -14 53 -11 170 l3 148 -575 0 -575 0 0
-167z"/>
<path d="M13011 7323 c-93 -2 -160 -8 -168 -15 -10 -8 -13 -46 -12 -154 0 -79
4 -146 8 -148 4 -3 81 -8 172 -12 90 -4 172 -11 181 -15 16 -9 16 -7 2 28 -12
29 -15 67 -12 180 2 92 -1 142 -7 141 -5 -1 -79 -4 -164 -5z"/>
<path d="M14422 7306 c11 -21 6 -281 -7 -310 -7 -16 -5 -17 16 -10 36 13 330
6 347 -9 13 -10 14 -8 6 13 -5 14 -9 95 -9 180 l0 155 -182 0 c-173 0 -181 -1
-171 -19z"/>
<path d="M11236 6949 c5 -8 11 -167 14 -354 l5 -340 365 0 365 0 0 340 0 340
-360 5 c-198 3 -369 10 -379 14 -15 8 -17 7 -10 -5z"/>
<path d="M13234 6857 c5 -59 5 -128 0 -170 l-9 -72 158 3 c174 4 198 1 227
-28 18 -18 20 -34 20 -179 0 -145 -2 -161 -21 -185 l-20 -26 -178 0 c-234 0
-222 -11 -222 204 0 86 3 162 7 168 5 8 2 9 -10 5 -10 -4 -89 -7 -177 -7
l-159 0 -10 -25 c-5 -13 -11 -172 -12 -352 l-3 -328 179 3 c239 4 226 17 226
-205 0 -161 0 -164 -25 -188 -24 -24 -28 -25 -184 -25 -88 0 -171 4 -185 10
-45 17 -56 56 -56 199 0 71 4 141 10 155 9 24 8 25 -16 16 -14 -6 -174 -10
-369 -10 -330 0 -345 -1 -355 -19 -11 -21 -14 -258 -4 -285 5 -14 47 -16 366
-16 l360 0 34 -34 34 -34 0 -135 c0 -140 -10 -191 -40 -207 -10 -6 -88 -10
-172 -10 -108 0 -159 -4 -171 -13 -16 -11 -17 -30 -15 -162 l3 -150 360 -3
c330 -2 361 -1 373 15 8 12 12 62 12 165 0 200 -14 188 218 188 97 0 182 -4
188 -8 31 -20 34 -54 34 -381 0 -184 -4 -341 -10 -355 -5 -14 -18 -30 -29 -36
-15 -7 -304 -11 -967 -10 -621 0 -953 -4 -965 -11 -17 -9 -19 -23 -19 -153 0
-109 3 -146 14 -155 10 -8 321 -10 1162 -9 l1149 3 5 162 c5 152 7 164 28 185
22 23 24 23 379 26 217 2 368 -1 385 -7 26 -9 27 -9 17 10 -6 13 -9 76 -7 172
l3 152 -378 0 -379 0 -24 28 c-23 27 -24 34 -24 173 0 150 10 194 45 208 9 3
88 6 175 6 134 0 160 2 171 17 10 11 15 58 17 169 4 199 -7 188 199 192 89 2
167 -1 184 -7 27 -9 28 -9 19 9 -6 11 -10 145 -10 347 0 243 -3 332 -12 341
-9 9 -105 12 -369 12 l-358 0 -28 24 -28 24 0 161 c0 216 -12 204 218 211
l172 5 5 155 c3 85 9 161 14 169 7 12 5 13 -10 5 -24 -12 -1056 -17 -1109 -6
l-40 9 9 -100z m763 -1009 c22 -21 23 -27 23 -185 0 -161 0 -164 -25 -188 -24
-25 -27 -25 -195 -25 -168 0 -171 0 -195 25 -25 24 -25 27 -25 190 0 220 -15
205 217 205 168 0 178 -1 200 -22z"/>
<path d="M3477 6573 l-168 -3 3 -158 3 -157 160 -5 c88 -3 168 -9 177 -14 16
-7 17 -5 7 23 -7 18 -10 89 -7 176 1 80 1 144 -2 143 -3 -1 -80 -4 -173 -5z"/>
<path d="M18400 6436 c0 -73 -3 -146 -6 -162 l-6 -29 174 5 173 5 3 144 c2 97
-1 148 -9 157 -9 11 -47 14 -170 14 l-159 0 0 -134z"/>
<path d="M10054 6045 c4 -88 11 -163 15 -168 4 -4 81 -6 172 -5 l164 3 3 162
2 162 -181 3 -182 3 7 -160z"/>
<path d="M15217 6193 c-13 -12 -8 -298 5 -311 17 -17 322 -17 336 1 6 7 8 67
5 165 l-6 152 -167 0 c-92 0 -170 -3 -173 -7z"/>
<path d="M1630 5829 c-25 -4 -105 -8 -177 -8 l-133 -1 0 -159 c0 -218 13 -205
-212 -211 l-173 -5 -3 -149 c-2 -95 1 -153 8 -160 11 -11 690 -18 709 -7 6 4
11 112 12 301 1 162 5 320 9 350 4 30 7 55 6 56 0 0 -21 -3 -46 -7z"/>
<path d="M18380 5821 c6 -13 10 -144 10 -359 0 -320 -1 -341 -19 -363 -19 -23
-24 -24 -195 -27 l-176 -3 0 -155 0 -156 -29 -29 -29 -29 -356 0 c-201 0 -366
4 -380 10 -48 18 -58 56 -54 218 l3 147 -182 2 -181 1 9 -31 c11 -40 12 -233
0 -272 l-8 -30 173 3 174 4 30 -30 30 -30 0 -157 c0 -152 -1 -156 -25 -180
-24 -25 -27 -25 -198 -25 -231 0 -219 -12 -215 211 l3 164 -175 0 c-96 0 -184
4 -195 9 -18 9 -19 8 -6 -7 10 -13 14 -56 15 -171 1 -150 0 -155 -23 -180
l-24 -26 -372 0 -372 0 -24 26 c-23 24 -24 32 -27 180 -2 108 -7 156 -15 159
-7 2 -86 5 -177 7 l-165 3 3 -160 c3 -153 2 -162 -19 -188 l-21 -28 -183 3
c-169 3 -182 2 -174 -14 5 -9 9 -83 9 -163 l0 -147 -29 -29 -29 -29 -165 0
-164 0 -7 -46 c-3 -26 -6 -93 -6 -150 0 -148 -19 -139 275 -130 308 8 471 0
497 -26 17 -17 18 -44 16 -556 l-3 -539 380 -2 c474 -2 428 21 423 -211 l-3
-165 180 0 180 0 -3 154 c-2 85 -1 165 3 178 4 16 19 30 42 40 32 13 82 14
368 8 245 -6 337 -4 353 4 22 12 22 13 22 352 l0 340 25 24 c24 25 27 25 198
25 157 0 177 -2 198 -19 l24 -19 3 -351 3 -350 147 -3 c81 -2 158 0 172 3 l25
5 3 162 c3 213 -9 202 227 202 227 0 215 12 215 -207 l0 -160 148 -7 c94 -4
158 -3 175 3 l27 11 0 338 0 339 -370 6 c-212 4 -379 11 -389 17 -37 19 -41
60 -36 374 3 165 7 315 9 331 l4 30 -178 -3 c-177 -4 -177 -4 -206 21 l-29 25
0 165 c0 223 -17 207 226 207 l188 0 21 -27 c21 -27 22 -36 18 -188 l-3 -160
168 3 168 3 29 -30 30 -29 0 -149 c0 -81 4 -154 8 -161 7 -9 48 -12 173 -10
l164 3 0 160 0 160 -170 5 c-93 3 -176 9 -184 14 -36 23 -41 68 -41 378 0 314
6 374 37 392 10 6 94 13 188 16 l170 5 3 460 c2 253 0 493 -3 533 l-7 72 -163
0 c-99 0 -166 4 -170 10 -12 19 -26 11 -15 -9z m-1603 -1845 l28 -24 0 -537 0
-537 -28 -24 -28 -24 -564 0 -564 0 -28 24 -28 24 0 535 0 535 24 26 24 26
568 0 568 0 28 -24z"/>
<path d="M16015 3567 c-3 -7 -4 -80 -3 -162 l3 -150 167 -3 c152 -2 167 -1
171 15 3 10 2 83 -1 163 l-7 145 -163 3 c-127 2 -164 0 -167 -11z"/>
<path d="M10861 5807 c-7 -9 -11 -176 -13 -538 l-3 -524 165 3 c91 1 171 5
178 7 9 3 12 82 12 349 l0 344 31 26 c30 26 33 26 195 26 l164 0 0 148 c0 102
-4 152 -12 160 -18 18 -701 17 -717 -1z"/>
<path d="M14809 5442 c13 -25 16 -621 2 -667 l-8 -30 187 0 c104 0 186 3 183
8 -2 4 -4 80 -4 169 1 149 3 164 21 183 20 19 31 20 388 17 202 -1 375 -5 385
-8 15 -5 16 -2 7 21 -5 14 -10 91 -10 171 l0 144 -564 0 c-310 0 -572 3 -581
7 -15 5 -16 3 -6 -15z"/>
<path d="M10070 5442 c-16 -6 -13 -681 3 -687 6 -2 86 -6 177 -7 l165 -3 -3
340 c-1 187 -6 343 -10 346 -7 7 -314 17 -332 11z"/>
<path d="M15998 5076 c4 -6 9 -81 12 -166 l5 -155 165 -3 c90 -1 169 -7 174
-12 17 -17 27 -11 16 9 -12 23 -17 286 -6 319 7 22 6 23 -12 13 -25 -13 -270
-14 -324 -2 -28 7 -36 6 -30 -3z"/>
<path d="M11644 5057 c-2 -7 -3 -78 -2 -157 l3 -145 173 -3 172 -2 0 160 0
160 -170 0 c-131 0 -172 -3 -176 -13z"/>
<path d="M1105 4330 l-170 -5 0 -160 0 -160 165 0 165 0 5 165 c3 91 5 165 5
165 0 0 -76 -2 -170 -5z"/>
<path d="M3317 4324 c-4 -4 -7 -79 -7 -166 l0 -158 170 0 170 0 -2 163 -3 162
-161 3 c-88 1 -163 -1 -167 -4z"/>
<path d="M948 3569 c-17 -9 -18 -81 -18 -1272 0 -969 3 -1266 12 -1275 9 -9
321 -12 1344 -12 1198 0 1334 2 1348 16 14 14 16 143 16 1269 l0 1254 -22 15
c-20 14 -164 16 -1343 16 -878 -1 -1326 -4 -1337 -11z m2333 -338 l24 -19 3
-894 c1 -491 0 -903 -3 -916 -3 -12 -14 -31 -25 -42 -20 -20 -38 -20 -992 -20
l-972 0 -23 22 -23 21 0 918 0 918 22 15 c20 14 131 16 994 16 942 0 973 -1
995 -19z"/>
<path d="M1732 2818 c-9 -9 -12 -138 -12 -519 0 -279 3 -514 6 -523 6 -14 64
-16 559 -16 432 0 556 3 562 13 4 6 9 236 11 509 4 449 3 500 -12 523 l-16 25
-543 0 c-409 0 -546 -3 -555 -12z"/>
<path d="M11658 3569 c-16 -9 -18 -27 -18 -152 0 -98 4 -147 12 -155 9 -9 150
-12 574 -12 520 0 563 -1 583 -17 20 -17 21 -27 22 -180 0 -89 -2 -166 -4
-170 -3 -4 72 -8 166 -8 95 0 181 -4 191 -9 15 -8 17 -7 10 5 -5 8 -11 167
-14 354 l-5 339 -25 7 c-42 12 -1473 10 -1492 -2z"/>
<path d="M13642 3572 c-9 -7 -12 -46 -10 -163 l3 -154 170 -5 c94 -3 176 -9
183 -14 11 -7 12 -4 3 12 -7 12 -11 79 -11 166 0 133 -2 146 -19 156 -23 12
-300 14 -319 2z"/>
<path d="M14016 3198 c4 -13 7 -84 6 -159 -2 -100 1 -139 10 -147 8 -6 84 -12
184 -14 l171 -3 -8 35 c-5 19 -9 92 -9 163 l0 127 -154 0 c-85 0 -167 5 -181
10 -25 9 -26 8 -19 -12z"/>
<path d="M6090 3040 l0 -160 168 2 167 3 0 155 0 155 -167 3 -168 2 0 -160z"/>
<path d="M12617 2833 c-121 -3 -169 -7 -172 -16 -2 -6 -5 -80 -7 -162 l-3
-151 155 1 c85 0 167 -3 182 -7 26 -8 26 -8 16 30 -6 22 -8 92 -5 175 3 75 4
136 4 135 -1 -1 -78 -4 -170 -5z"/>
<path d="M13228 2674 c4 -157 3 -162 -20 -187 -23 -27 -24 -27 -183 -29 -88
-1 -171 2 -183 6 -22 7 -23 6 -16 -16 9 -25 9 -276 0 -305 -5 -17 5 -18 172
-15 240 5 225 17 232 -200 l5 -163 172 -5 c229 -7 217 5 221 -207 1 -112 6
-159 15 -165 6 -4 170 -8 364 -8 193 0 359 -3 368 -6 13 -6 15 -2 8 22 -4 16
-7 93 -6 172 l1 142 -184 0 c-232 0 -216 -16 -212 211 l3 164 -175 -3 c-163
-3 -178 -2 -200 16 l-25 20 -5 354 -5 353 -175 5 -175 5 3 -161z"/>
<path d="M14415 2670 l0 -165 160 0 c88 0 172 -3 187 -8 26 -7 27 -6 18 19 -6
14 -10 88 -10 165 0 103 -3 141 -12 144 -7 2 -87 5 -178 7 l-165 3 0 -165z"/>
<path d="M11645 2818 c-2 -7 -6 -82 -7 -166 l-3 -152 180 0 180 0 -3 153 c-2
83 -5 158 -7 165 -3 9 -46 12 -170 12 -124 0 -167 -3 -170 -12z"/>
<path d="M11247 2307 c1 -86 5 -162 8 -167 4 -6 73 -10 173 -10 l167 0 0 165
0 164 -175 3 -175 3 2 -158z"/>
<path d="M12038 2297 c4 -230 18 -217 -220 -217 l-178 0 0 -163 c0 -216 8
-207 -178 -208 -153 0 -200 -3 -210 -14 -4 -4 -9 -77 -12 -163 l-5 -157 177 3
177 4 26 -26 c24 -25 25 -28 25 -173 0 -81 4 -154 8 -161 7 -9 88 -12 373 -10
l364 3 0 155 0 155 -160 7 c-88 4 -169 10 -181 12 -11 3 -29 20 -38 38 -16 30
-17 49 -10 188 l9 155 35 17 c31 16 72 18 388 18 l352 0 0 143 c0 78 3 151 6
162 5 19 1 20 -158 17 -89 -2 -173 0 -186 3 -43 11 -54 62 -51 231 2 84 2 151
-1 149 -15 -9 -207 -14 -275 -7 l-80 7 3 -168z"/>
<path d="M14207 2463 l-168 -3 -10 -28 c-6 -15 -8 -45 -5 -67 3 -22 2 -85 -2
-140 l-7 -100 180 0 180 0 0 173 c0 94 0 171 0 170 0 -1 -76 -4 -168 -5z"/>
<path d="M14815 2295 l0 -170 180 0 180 0 -3 170 -3 170 -177 0 -177 0 0 -170z"/>
<path d="M15206 2077 c4 -12 8 -175 7 -362 l0 -340 171 5 171 5 5 160 c3 88 9
167 13 176 16 32 56 39 222 39 l164 0 3 163 3 162 -354 -3 c-222 -2 -365 1
-383 7 -27 10 -29 9 -22 -12z"/>
<path d="M16396 2084 c5 -11 10 -252 12 -546 l3 -528 168 0 c145 0 170 2 175
16 3 9 6 166 6 350 l0 335 25 25 25 25 175 -4 c151 -4 178 -7 195 -22 18 -17
20 -32 20 -175 0 -108 4 -160 12 -168 17 -17 1099 -17 1116 0 8 8 12 58 12
159 0 125 -2 148 -16 153 -9 3 -89 6 -178 6 -212 0 -199 -13 -206 204 l-5 161
-760 5 c-432 3 -766 9 -774 14 -12 7 -13 5 -5 -10z"/>
<path d="M14423 2025 c9 -61 3 -237 -8 -267 -6 -15 -3 -16 27 -8 18 6 99 10
180 10 l148 0 0 143 c0 78 3 151 6 162 5 19 0 20 -179 20 l-183 0 9 -60z"/>
<path d="M10485 2073 c-11 -3 -23 -10 -27 -16 -4 -6 -6 -76 -6 -157 l1 -145
161 3 c89 2 167 5 174 7 10 4 12 40 10 157 l-3 153 -145 1 c-80 1 -154 0 -165
-3z"/>
<path d="M10223 1703 l-163 -3 0 -155 c0 -152 0 -155 23 -160 12 -3 90 -4 172
-3 l150 3 5 163 c4 140 3 162 -10 160 -8 -1 -88 -4 -177 -5z"/>
<path d="M14417 1324 c4 -16 7 -84 5 -151 -2 -74 2 -131 8 -143 10 -19 21 -20
370 -20 198 0 361 1 362 3 1 1 4 77 7 168 l6 166 -26 -9 c-33 -11 -697 -6
-722 6 -16 8 -17 5 -10 -20z"/>
<path d="M4110 1320 c-6 -12 -9 -75 -8 -162 l3 -143 170 0 170 0 3 143 c1 87
-2 150 -8 162 -10 19 -21 20 -165 20 -144 0 -155 -1 -165 -20z"/>
<path d="M11000 1330 l-145 -5 0 -155 0 -155 166 -3 c166 -2 167 -2 173 20 3
13 6 87 6 166 l0 142 -27 -2 c-16 -1 -93 -5 -173 -8z"/>
<path d="M12844 1317 c-2 -7 -3 -78 -2 -157 l3 -145 164 -3 c93 -1 167 1 170
7 3 5 5 77 3 160 l-3 151 -165 0 c-126 0 -166 -3 -170 -13z"/>
</g>
</svg>
